<?xml version="1.0" encoding="UTF-8"?>
<svg id="Layer_1" xmlns="http://www.w3.org/2000/svg" version="1.1" viewBox="0 0 260.86 257.79">
  <!-- Generator: Adobe Illustrator 29.2.1, SVG Export Plug-In . SVG Version: 2.1.0 Build 116)  -->
  <defs>
    <style>
      .st0 {
        fill: #004454;
      }

      .st1 {
        fill: #efc986;
      }

      .st2 {
        fill: #bfa06a;
      }

      .st3 {
        fill: #715f3f;
      }
    </style>
  </defs>
  <path class="st0" d="M205.47,0H53.01C23.78,0,0,23.79,0,53.01v152.47c0,29.23,23.78,53.01,53.01,53.01h152.46c29.23,0,53.01-23.78,53.01-53.01V53.01c0-29.22-23.78-53.01-53.01-53.01"/>
  <g>
    <rect class="st1" x="105.49" y="205.85" width="94.64" height="17.65"/>
    <path class="st1" d="M200.13,195.82h-18.37V63.5h18.37v132.32Z"/>
    <polygon class="st1" points="100.29 164.01 100.29 223.5 58.35 223.5 58.35 205.85 81.92 205.85 81.92 164.01 100.29 164.01"/>
    <polygon class="st2" points="164.41 34.98 164.41 117.13 146.05 117.13 146.05 55 164.41 34.98"/>
    <polygon class="st1" points="176.56 141.03 176.56 195.82 105.48 195.82 105.48 161.66 123.86 161.66 123.86 178.15 158.18 178.15 158.18 158.67 67.34 158.67 67.34 63.5 85.72 63.5 85.72 141.03 105.48 141.03 105.48 77.68 144.69 34.98 164.41 34.98 146.05 55 123.86 79.16 123.86 141.03 176.56 141.03"/>
    <polygon class="st3" points="164.41 34.98 146.05 58.84 146.05 55 164.41 34.98"/>
  </g>
</svg>